<svg viewBox="0 0 560 300" xmlns="http://www.w3.org/2000/svg">
  <rect width="560" height="300" fill="#f0ede5"/>
  <rect x="14" y="14" width="532" height="272" rx="8" fill="white" stroke="#dddbd4" stroke-width="1.5"/>
  <rect x="14" y="14" width="532" height="30" rx="8" fill="#f5f4f0"/>
  <rect x="14" y="28" width="532" height="16" fill="#f5f4f0"/>
  <circle cx="30" cy="29" r="5" fill="#ff6058"/><circle cx="46" cy="29" r="5" fill="#ffbb2c"/><circle cx="62" cy="29" r="5" fill="#28ca42"/>
  <text x="185" y="34" font-family="monospace" font-size="10" fill="#5a6270" font-weight="bold">CODAP — Ecological Data Analysis</text>
  <rect x="22" y="52" width="162" height="226" rx="4" fill="#faf9f5" stroke="#dddbd4" stroke-width="1"/>
  <rect x="22" y="52" width="162" height="22" rx="4" fill="#e8f0f9"/>
  <rect x="22" y="62" width="162" height="12" fill="#e8f0f9"/>
  <text x="30" y="68" font-family="monospace" font-size="8.5" fill="#1a5fa8" font-weight="bold">Salmon Count Data</text>
  <line x1="22" y1="74" x2="184" y2="74" stroke="#dddbd4" stroke-width="1"/>
  <text x="26" y="84" font-family="monospace" font-size="7" fill="#5a6270" font-weight="bold">River</text>
  <text x="78" y="84" font-family="monospace" font-size="7" fill="#5a6270" font-weight="bold">Species</text>
  <text x="138" y="84" font-family="monospace" font-size="7" fill="#5a6270" font-weight="bold">Count</text>
  <line x1="22" y1="87" x2="184" y2="87" stroke="#dddbd4" stroke-width="1"/>
  <g font-family="monospace" font-size="7" fill="#2a3a28">
    <rect x="22" y="88" width="162" height="11" fill="#f5faf0" opacity="0.6"/>
    <text x="26" y="97">Nitinat</text><text x="78" y="97">Coho</text><text x="148" y="97">342</text>
    <text x="26" y="109">Nitinat</text><text x="78" y="109">Sockeye</text><text x="148" y="109">218</text>
    <rect x="22" y="112" width="162" height="11" fill="#f5faf0" opacity="0.6"/>
    <text x="26" y="121">Koeye</text><text x="78" y="121">Coho</text><text x="148" y="121">489</text>
    <text x="26" y="133">Koeye</text><text x="78" y="133">Chinook</text><text x="148" y="133">127</text>
    <rect x="22" y="136" width="162" height="11" fill="#f5faf0" opacity="0.6"/>
    <text x="26" y="145">KwaKwa</text><text x="78" y="145">Coho</text><text x="148" y="145">302</text>
    <text x="26" y="157">KwaKwa</text><text x="78" y="157">Sockeye</text><text x="148" y="157">195</text>
    <rect x="22" y="160" width="162" height="11" fill="#f5faf0" opacity="0.6"/>
    <text x="26" y="169">Coquitlam</text><text x="78" y="169">Coho</text><text x="148" y="169">568</text>
    <text x="26" y="181">Coquitlam</text><text x="78" y="181">Sockeye</text><text x="148" y="181">411</text>
    <rect x="22" y="184" width="162" height="11" fill="#f5faf0" opacity="0.6"/>
    <text x="26" y="193">Bear</text><text x="78" y="193">Chinook</text><text x="148" y="193">88</text>
    <text x="26" y="205">Bear</text><text x="78" y="205">Coho</text><text x="148" y="205">276</text>
    <rect x="22" y="208" width="162" height="11" fill="#f5faf0" opacity="0.6"/>
    <text x="26" y="217">Tranquil</text><text x="78" y="217">Chum</text><text x="148" y="217">634</text>
    <text x="26" y="229">Tranquil</text><text x="78" y="229">Coho</text><text x="148" y="229">198</text>
  </g>
  <rect x="192" y="52" width="166" height="122" rx="4" fill="#faf9f5" stroke="#dddbd4" stroke-width="1"/>
  <text x="200" y="66" font-family="monospace" font-size="8.5" fill="#1a5fa8" font-weight="bold">Count by River</text>
  <line x1="208" y1="160" x2="350" y2="160" stroke="#dddbd4" stroke-width="1"/>
  <rect x="214" y="108" width="18" height="52" rx="2" fill="#1a5fa8" opacity="0.85"/>
  <rect x="240" y="120" width="18" height="40" rx="2" fill="#1a5fa8" opacity="0.85"/>
  <rect x="266" y="98" width="18" height="62" rx="2" fill="#4a7a5e" opacity="0.85"/>
  <rect x="292" y="128" width="18" height="32" rx="2" fill="#1a5fa8" opacity="0.85"/>
  <rect x="318" y="112" width="18" height="48" rx="2" fill="#4a7a5e" opacity="0.85"/>
  <rect x="252" y="86" width="52" height="18" rx="3" fill="#1a2838" opacity="0.9"/>
  <text x="256" y="98" font-family="monospace" font-size="7.5" fill="white">Koeye: 616</text>
  <polygon points="275,104 271,114 279,114" fill="#1a2838" opacity="0.9"/>
  <g font-family="monospace" font-size="6.5" fill="#5a6270" text-anchor="middle">
    <text x="223" y="170">Nit.</text><text x="249" y="170">KwK.</text><text x="275" y="170">Koeye</text>
    <text x="301" y="170">Coq.</text><text x="327" y="170">Bear</text>
  </g>
  <rect x="192" y="182" width="166" height="92" rx="4" fill="#faf9f5" stroke="#dddbd4" stroke-width="1"/>
  <text x="200" y="196" font-family="monospace" font-size="8.5" fill="#1a5fa8" font-weight="bold">Count vs. Date</text>
  <line x1="210" y1="262" x2="350" y2="262" stroke="#dddbd4" stroke-width="1"/>
  <line x1="210" y1="202" x2="210" y2="262" stroke="#dddbd4" stroke-width="1"/>
  <path d="M218,252 C238,242 258,236 280,230 C300,225 320,222 340,218" fill="none" stroke="#4a7a5e" stroke-width="1.5" stroke-dasharray="4,3" opacity="0.7"/>
  <g fill="#1a5fa8" opacity="0.8">
    <circle cx="220" cy="255" r="3.5"/><circle cx="238" cy="248" r="3.5"/><circle cx="256" cy="242" r="3.5"/>
    <circle cx="274" cy="237" r="3.5"/><circle cx="292" cy="232" r="3.5"/><circle cx="310" cy="228" r="3.5"/>
    <circle cx="328" cy="224" r="3.5"/><circle cx="344" cy="220" r="3.5"/>
  </g>
  <circle cx="256" cy="252" r="3.5" fill="#c84820" opacity="0.8"/>
  <rect x="366" y="52" width="166" height="226" rx="4" fill="#dce8f4" stroke="#dddbd4" stroke-width="1"/>
  <text x="374" y="66" font-family="monospace" font-size="8.5" fill="#1a5fa8" font-weight="bold">BC River Map</text>
  <path d="M382,80 C386,88 390,104 387,118 C384,133 377,145 374,158 C372,170 376,182 374,195 C372,208 366,218 366,230 C366,244 372,254 377,262" fill="none" stroke="#4a7a9a" stroke-width="1.5" opacity="0.6"/>
  <g stroke="#1a5fa8" stroke-width="1.5" stroke-linecap="round" opacity="0.7">
    <path d="M414,112 C407,122 400,130 390,134"/>
    <path d="M440,138 C432,145 422,150 410,154"/>
    <path d="M428,170 C420,177 410,182 400,184"/>
    <path d="M445,202 C437,210 427,216 415,218"/>
  </g>
  <circle cx="390" cy="134" r="5" fill="#1a5fa8" stroke="white" stroke-width="1.5"/>
  <circle cx="410" cy="154" r="5" fill="#4a7a5e" stroke="white" stroke-width="1.5"/>
  <circle cx="400" cy="184" r="5" fill="#1a5fa8" stroke="white" stroke-width="1.5"/>
  <circle cx="415" cy="218" r="5" fill="#4a7a5e" stroke="white" stroke-width="1.5"/>
  <circle cx="438" cy="240" r="5" fill="#c84820" stroke="white" stroke-width="1.5"/>
  <circle cx="410" cy="154" r="9" fill="none" stroke="#4a7a5e" stroke-width="1.5" stroke-dasharray="3,2"/>
  <g font-family="monospace" font-size="7" fill="#2a3848">
    <text x="394" y="132">Nitinat</text><text x="414" y="152">Koeye</text>
    <text x="404" y="182">KwaKwa</text><text x="419" y="216">Coq.</text><text x="442" y="238">Bear</text>
  </g>
  <circle cx="374" cy="270" r="4" fill="#1a5fa8"/>
  <text x="382" y="273" font-family="monospace" font-size="7" fill="#2a3848">Coho</text>
  <circle cx="412" cy="270" r="4" fill="#4a7a5e"/>
  <text x="420" y="273" font-family="monospace" font-size="7" fill="#2a3848">Sockeye</text>
  <circle cx="452" cy="270" r="4" fill="#c84820"/>
  <text x="460" y="273" font-family="monospace" font-size="7" fill="#2a3848">Chinook</text>
</svg>