<svg width="512" height="512" viewBox="0 0 512 512" fill="none" xmlns="http://www.w3.org/2000/svg">
<path d="M449.22 198.712C433.334 114.973 346.484 51 251.859 51C153.485 51 70.2873 125.723 52.2891 212.267C47.7649 234.022 54.9698 247.426 76.747 252.155C114.745 260.407 170.96 254.923 192.919 240.049C203 234 208.43 229.202 216.186 223.003C223.931 216.814 227.034 213.714 231.678 209.076L231.697 209.057C236.352 204.408 244.088 196.66 256.506 176.516C268.925 156.371 278.222 161.02 287.529 182.714C296.836 204.408 307.694 168.79 309.245 164.905C310.796 161.02 310.092 162.778 310.796 161.02C311.5 159.262 312.5 156 317.001 145.524C321.501 135.049 337.176 122.281 346.483 140.876C355.79 159.471 361.994 170.318 368.199 182.714C374.403 195.111 379.057 204.408 388.364 212.156C397.67 219.904 405.426 221.454 405.426 221.454C406.5 222 456.613 232.301 449.663 201.309C449.512 200.634 449.322 199.25 449.22 198.712Z" fill="#0087EF"/>
<path d="M460.773 287.858C439.45 382.964 365.495 461 256.655 461C147.815 461 91.7092 395.618 61.8207 326.746C34.3711 248.897 90.5222 375.818 281.202 295.265C305.906 284.829 467.881 226.685 460.773 287.858Z" fill="#0087EF"/>
</svg>
