<svg width="1000" height="300" viewBox="0 0 1000 300" fill="none" xmlns="http://www.w3.org/2000/svg">
<path d="M288.426 122.893C280.909 83.2701 239.814 53 195.041 53C148.493 53 109.126 88.3568 100.61 129.307C98.4693 139.601 101.878 145.943 112.183 148.181C130.162 152.085 156.762 149.49 167.152 142.452C171.922 139.59 174.491 137.32 178.161 134.387C181.826 131.458 183.294 129.992 185.492 127.797L185.501 127.788C187.703 125.588 191.363 121.922 197.239 112.39C203.116 102.859 207.515 105.058 211.919 115.323C216.322 125.588 221.46 108.735 222.194 106.896C222.928 105.058 222.595 105.89 222.928 105.058C223.261 104.226 223.734 102.683 225.864 97.7262C227.993 92.7694 235.41 86.7279 239.814 95.5265C244.218 104.325 247.153 109.458 250.089 115.323C253.025 121.189 255.227 125.588 259.631 129.254C264.034 132.92 267.704 133.654 267.704 133.654C268.212 133.912 291.924 138.786 288.636 124.122C288.564 123.802 288.474 123.148 288.426 122.893Z" fill="#0087EF"/>
<path d="M293.893 165.074C283.803 210.076 248.81 247 197.31 247C145.81 247 119.262 216.063 105.12 183.475C92.1317 146.639 118.701 206.694 208.925 168.579C220.614 163.641 297.256 136.129 293.893 165.074Z" fill="#0087EF"/>
<path d="M807.301 206.584C806.448 206.584 805.717 206.34 805.107 205.852C804.498 205.365 804.193 204.755 804.193 204.024C804.193 203.171 804.559 202.317 805.29 201.464L838.932 161.971L806.753 123.941C806.021 122.966 805.656 122.112 805.656 121.381C805.656 119.675 806.631 118.821 808.581 118.821H825.585C826.926 118.821 827.901 119.004 828.51 119.37C829.12 119.614 829.729 120.162 830.339 121.015L851.914 146.247L873.854 121.015C874.586 120.162 875.256 119.614 875.865 119.37C876.475 119.004 877.389 118.821 878.608 118.821H895.612C897.562 118.821 898.537 119.675 898.537 121.381C898.537 122.112 898.172 122.966 897.44 123.941L865.078 161.971L898.903 201.464C899.634 202.317 900 203.171 900 204.024C900 204.755 899.695 205.365 899.086 205.852C898.476 206.34 897.745 206.584 896.892 206.584H879.888C878.669 206.584 877.755 206.462 877.145 206.218C876.658 205.974 876.048 205.426 875.317 204.572L851.914 177.695L828.876 204.572C828.145 205.426 827.474 205.974 826.865 206.218C826.377 206.462 825.524 206.584 824.305 206.584H807.301Z" fill="#0087EF"/>
<path d="M735.474 209.326C723.529 209.326 714.022 205.73 706.952 198.539C699.882 191.225 696.347 180.986 696.347 167.822C696.347 157.583 698.602 148.563 703.112 140.762C707.622 132.839 714.022 126.744 722.31 122.478C730.721 118.212 740.472 116.079 751.564 116.079C767.045 116.079 780.148 119.736 790.874 127.049V201.647C790.874 203.475 790.448 204.755 789.595 205.487C788.863 206.218 787.522 206.584 785.572 206.584H775.516C774.175 206.584 773.139 206.34 772.408 205.852C771.798 205.243 771.372 204.329 771.128 203.11L769.665 195.979C765.887 200.611 761.194 204.024 755.587 206.218C750.102 208.29 743.397 209.326 735.474 209.326ZM744.251 192.688C750.711 192.688 756.379 190.799 761.255 187.02C766.252 183.241 768.751 178.244 768.751 172.027V136.374C766.191 135.033 763.571 134.119 760.889 133.631C758.329 133.022 755.16 132.717 751.381 132.717C741.752 132.717 734.012 135.764 728.161 141.859C722.31 147.954 719.385 156.364 719.385 167.091C719.385 175.867 721.396 182.327 725.418 186.471C729.563 190.616 735.84 192.688 744.251 192.688Z" fill="#0087EF"/>
<path d="M561.61 206.584C559.172 206.584 557.405 206.035 556.308 204.938C555.211 203.841 554.662 202.196 554.662 200.001V123.758C554.662 121.93 554.967 120.65 555.576 119.918C556.186 119.187 557.466 118.821 559.416 118.821H569.106C570.447 118.821 571.422 119.126 572.032 119.736C572.641 120.223 573.007 121.137 573.129 122.478L573.677 130.157C577.212 125.647 581.235 122.173 585.745 119.736C590.376 117.298 595.862 116.079 602.2 116.079C607.563 116.079 612.195 117.298 616.096 119.736C620.118 122.052 623.043 125.525 624.872 130.157C631.576 120.772 641.266 116.079 653.943 116.079C662.597 116.079 669.423 118.7 674.421 123.941C679.54 129.182 682.1 136.983 682.1 147.344V200.001C682.1 202.196 681.552 203.841 680.455 204.938C679.479 206.035 677.712 206.584 675.152 206.584H667.107C664.67 206.584 662.902 206.035 661.805 204.938C660.708 203.841 660.16 202.196 660.16 200.001V148.624C660.16 143.017 658.941 138.995 656.503 136.557C654.187 134.119 650.652 132.9 645.898 132.9C640.901 132.9 636.817 134.545 633.648 137.837C630.601 141.128 629.077 145.577 629.077 151.184V200.001C629.077 202.196 628.529 203.841 627.432 204.938C626.335 206.035 624.567 206.584 622.129 206.584H614.633C612.195 206.584 610.428 206.035 609.331 204.938C608.234 203.841 607.685 202.196 607.685 200.001V147.71C607.685 142.59 606.588 138.873 604.394 136.557C602.322 134.119 598.97 132.9 594.338 132.9C589.097 132.9 584.83 134.667 581.539 138.202C578.248 141.615 576.603 146.125 576.603 151.732V200.001C576.603 202.196 576.054 203.841 574.957 204.938C573.982 206.035 572.215 206.584 569.655 206.584H561.61Z" fill="#0087EF"/>
<path d="M479.179 209.326C469.183 209.326 461.139 206.584 455.044 201.098C448.949 195.491 445.902 187.203 445.902 176.232V125.586C445.902 123.27 446.39 121.564 447.365 120.467C448.462 119.37 450.229 118.821 452.667 118.821H462.358C464.795 118.821 466.563 119.37 467.66 120.467C468.757 121.564 469.305 123.27 469.305 125.586V175.684C469.305 181.535 470.829 185.862 473.876 188.665C476.924 191.347 481.434 192.688 487.406 192.688C493.745 192.688 499.047 190.92 503.313 187.386C507.579 183.851 509.713 179.28 509.713 173.673V125.586C509.713 123.27 510.261 121.564 511.358 120.467C512.455 119.37 514.223 118.821 516.66 118.821H526.168C528.606 118.821 530.373 119.37 531.47 120.467C532.567 121.564 533.116 123.27 533.116 125.586V201.647C533.116 203.597 532.811 204.938 532.202 205.669C531.592 206.279 530.312 206.584 528.362 206.584H518.123C516.782 206.584 515.807 206.34 515.198 205.852C514.588 205.243 514.223 204.329 514.101 203.11L513.369 195.43C505.081 204.694 493.684 209.326 479.179 209.326Z" fill="#0087EF"/>
<path d="M353.413 206.584C350.975 206.584 349.208 206.035 348.111 204.938C347.136 203.841 346.648 202.195 346.648 200.001V89.0188C346.648 86.7029 347.136 84.9964 348.111 83.8994C349.208 82.8024 350.975 82.2538 353.413 82.2538H363.104C365.542 82.2538 367.309 82.8024 368.406 83.8994C369.503 84.9964 370.052 86.7029 370.052 89.0188V188.848H426C428.438 188.848 430.144 189.397 431.119 190.494C432.095 191.469 432.582 193.115 432.582 195.43V200.367C432.582 202.561 432.095 204.146 431.119 205.121C430.144 206.096 428.438 206.584 426 206.584H353.413Z" fill="#0087EF"/>
</svg>
